<svg width="264" height="264" viewBox="0 0 264 264" fill="none" xmlns="http://www.w3.org/2000/svg">
<g filter="url(#filter0_dd_82_141)">
<rect x="7" y="7" width="250" height="250" rx="125" fill="#1D1515" fill-opacity="0.85" shape-rendering="crispEdges"/>
<rect x="8.5" y="8.5" width="247" height="247" rx="123.5" stroke="white" stroke-width="3" shape-rendering="crispEdges"/>
</g>
<path d="M43.7358 131.273V127.636L73.0085 112.727V118.545L50.554 129.364L50.7358 129V129.909L50.554 129.545L73.0085 140.364V146.182L43.7358 131.273ZM85.1051 152V105.455H101.378C104.62 105.455 107.295 106.015 109.401 107.136C111.507 108.242 113.075 109.735 114.105 111.614C115.135 113.477 115.651 115.545 115.651 117.818C115.651 119.818 115.295 121.47 114.582 122.773C113.885 124.076 112.961 125.106 111.81 125.864C110.673 126.621 109.438 127.182 108.105 127.545V128C109.529 128.091 110.961 128.591 112.401 129.5C113.84 130.409 115.045 131.712 116.014 133.409C116.984 135.106 117.469 137.182 117.469 139.636C117.469 141.97 116.938 144.068 115.878 145.932C114.817 147.795 113.143 149.273 110.855 150.364C108.567 151.455 105.59 152 101.923 152H85.1051ZM90.7415 147H101.923C105.605 147 108.219 146.288 109.764 144.864C111.325 143.424 112.105 141.682 112.105 139.636C112.105 138.061 111.704 136.606 110.901 135.273C110.098 133.924 108.954 132.848 107.469 132.045C105.984 131.227 104.226 130.818 102.196 130.818H90.7415V147ZM90.7415 125.909H101.196C102.893 125.909 104.423 125.576 105.787 124.909C107.166 124.242 108.257 123.303 109.06 122.091C109.878 120.879 110.287 119.455 110.287 117.818C110.287 115.773 109.575 114.038 108.151 112.614C106.726 111.174 104.469 110.455 101.378 110.455H90.7415V125.909ZM126.73 152V105.455H142.457C146.109 105.455 149.094 106.114 151.412 107.432C153.745 108.735 155.473 110.5 156.594 112.727C157.715 114.955 158.276 117.439 158.276 120.182C158.276 122.924 157.715 125.417 156.594 127.659C155.488 129.902 153.776 131.689 151.457 133.023C149.139 134.341 146.17 135 142.548 135H131.276V130H142.366C144.866 130 146.874 129.568 148.389 128.705C149.904 127.841 151.003 126.674 151.685 125.205C152.382 123.72 152.73 122.045 152.73 120.182C152.73 118.318 152.382 116.652 151.685 115.182C151.003 113.712 149.897 112.561 148.366 111.727C146.836 110.879 144.806 110.455 142.276 110.455H132.366V152H126.73ZM183.082 103.273L168.082 159H163.173L178.173 103.273H183.082ZM220.259 135.636L190.986 150.545V144.727L213.44 133.909L213.259 134.273V133.364L213.44 133.727L190.986 122.909V117.091L220.259 132V135.636Z" fill="white"/>
<path d="M77.0491 72.974C76.4684 73.026 75.6364 73.052 74.5531 73.052C73.4697 73.052 72.7287 73.0347 72.3301 73C71.9401 72.974 71.6454 72.9047 71.4461 72.792C71.2467 72.6793 71.1384 72.5017 71.1211 72.259C71.0691 71.323 71.0431 70.257 71.0431 69.061C71.0431 67.8563 71.0604 66.5823 71.0951 65.239C71.1124 64.407 71.4981 63.965 72.2521 63.913C72.7807 63.8783 73.5911 63.861 74.6831 63.861C75.7751 63.861 76.6287 63.8783 77.2441 63.913C77.8681 63.939 78.4661 64.082 79.0381 64.342C79.6187 64.5933 80.0824 64.9227 80.4291 65.33C81.1484 66.1707 81.5081 67.1457 81.5081 68.255C81.5081 69.425 81.1311 70.4693 80.3771 71.388C80.0131 71.83 79.5407 72.194 78.9601 72.48C78.3881 72.766 77.7511 72.9307 77.0491 72.974ZM76.4641 66.708V69.854C76.4641 69.9233 76.4901 69.9883 76.5421 70.049C76.5941 70.1097 76.6634 70.14 76.7501 70.14C77.3047 70.14 77.7294 69.9493 78.0241 69.568C78.3274 69.1867 78.4791 68.736 78.4791 68.216C78.4791 67.696 78.3404 67.2453 78.0631 66.864C77.7944 66.474 77.4304 66.279 76.9711 66.279C76.8584 66.279 76.7717 66.2833 76.7111 66.292C76.5464 66.3353 76.4641 66.474 76.4641 66.708ZM83.7234 73C83.4808 73 83.2728 72.922 83.0994 72.766C82.9348 72.6013 82.8264 72.337 82.7744 71.973C82.7311 71.6003 82.7094 70.4953 82.7094 68.658C82.7094 66.812 82.7398 65.6073 82.8004 65.044C82.8698 64.316 83.1774 63.9433 83.7234 63.926C84.3474 63.9087 86.9344 63.9 91.4844 63.9C91.9958 63.9 92.2514 64.225 92.2514 64.875C92.2514 65.3863 92.0261 65.642 91.5754 65.642H88.7154C88.5334 65.642 88.3861 65.7027 88.2734 65.824C88.1694 65.9453 88.1174 66.1013 88.1174 66.292V67.228C88.1174 67.488 88.2344 67.618 88.4684 67.618H90.8344C90.9731 67.618 91.0771 67.631 91.1464 67.657C91.2244 67.683 91.2938 67.761 91.3544 67.891C91.4151 68.0123 91.4454 68.216 91.4454 68.502C91.4454 68.788 91.3934 68.9787 91.2894 69.074C91.1941 69.1693 91.0338 69.217 90.8084 69.217H88.6894C88.4728 69.217 88.3211 69.2733 88.2344 69.386C88.1564 69.49 88.1174 69.6547 88.1174 69.88V70.517C88.1174 70.8897 88.2951 71.076 88.6504 71.076H91.8874C92.0434 71.076 92.1821 71.1237 92.3034 71.219C92.4248 71.3057 92.4854 71.505 92.4854 71.817C92.4854 72.1203 92.4118 72.3933 92.2644 72.636C92.1171 72.8787 91.9438 73 91.7444 73H83.7234ZM101.27 72.324C101.114 72.6187 100.841 72.8483 100.451 73.013C100.07 73.1777 99.6539 73.26 99.2032 73.26C98.7525 73.26 98.3409 73.182 97.9682 73.026C97.5955 72.87 97.3269 72.6447 97.1622 72.35C95.8622 69.9493 94.6532 67.592 93.5352 65.278C93.4052 65.0007 93.3402 64.7883 93.3402 64.641C93.3402 64.173 93.5525 63.939 93.9772 63.939L97.7342 63.913C98.0549 63.913 98.2975 63.9693 98.4622 64.082C98.6355 64.1947 98.7872 64.42 98.9172 64.758L100.178 67.982C100.23 68.1207 100.326 68.19 100.464 68.19C100.603 68.19 100.707 68.1207 100.776 67.982L102.479 64.29C102.592 64.056 102.713 63.926 102.843 63.9C102.895 63.8913 102.986 63.887 103.116 63.887L104.611 63.913C104.776 63.913 104.893 63.991 104.962 64.147C104.988 64.2077 105.001 64.2813 105.001 64.368C105.001 64.4547 104.902 64.693 104.702 65.083C104.512 65.473 104.005 66.5563 103.181 68.333C102.367 70.1097 101.73 71.44 101.27 72.324ZM107.21 73C106.967 73 106.759 72.922 106.586 72.766C106.421 72.6013 106.313 72.337 106.261 71.973C106.217 71.6003 106.196 70.4953 106.196 68.658C106.196 66.812 106.226 65.6073 106.287 65.044C106.356 64.316 106.664 63.9433 107.21 63.926C107.834 63.9087 110.421 63.9 114.971 63.9C115.482 63.9 115.738 64.225 115.738 64.875C115.738 65.3863 115.512 65.642 115.062 65.642H112.202C112.02 65.642 111.872 65.7027 111.76 65.824C111.656 65.9453 111.604 66.1013 111.604 66.292V67.228C111.604 67.488 111.721 67.618 111.955 67.618H114.321C114.459 67.618 114.563 67.631 114.633 67.657C114.711 67.683 114.78 67.761 114.841 67.891C114.901 68.0123 114.932 68.216 114.932 68.502C114.932 68.788 114.88 68.9787 114.776 69.074C114.68 69.1693 114.52 69.217 114.295 69.217H112.176C111.959 69.217 111.807 69.2733 111.721 69.386C111.643 69.49 111.604 69.6547 111.604 69.88V70.517C111.604 70.8897 111.781 71.076 112.137 71.076H115.374C115.53 71.076 115.668 71.1237 115.79 71.219C115.911 71.3057 115.972 71.505 115.972 71.817C115.972 72.1203 115.898 72.3933 115.751 72.636C115.603 72.8787 115.43 73 115.231 73H107.21ZM122.638 67.033L122.625 69.633C122.625 70.0143 122.681 70.3003 122.794 70.491C122.915 70.673 123.162 70.764 123.535 70.764H126.824C127.222 70.7727 127.422 71.076 127.422 71.674C127.422 72.1333 127.365 72.467 127.253 72.675C127.14 72.883 126.91 72.9913 126.564 73C125.342 73.0347 124.133 73.052 122.937 73.052C121.741 73.052 120.215 73.0433 118.361 73.026C118.049 73.026 117.793 72.9523 117.594 72.805C117.403 72.649 117.295 72.4367 117.269 72.168C117.199 71.414 117.165 70.2267 117.165 68.606C117.165 66.9767 117.182 65.8803 117.217 65.317C117.26 64.745 117.342 64.368 117.464 64.186C117.585 63.9953 117.823 63.9 118.179 63.9H121.663C122.027 63.9 122.265 63.9953 122.378 64.186C122.499 64.3767 122.573 64.6843 122.599 65.109C122.625 65.5337 122.638 66.175 122.638 67.033ZM134.655 73.26C133.606 73.26 132.657 73.1257 131.808 72.857C130.958 72.5797 130.269 72.2113 129.741 71.752C129.212 71.2927 128.809 70.7813 128.532 70.218C128.254 69.646 128.116 69.0523 128.116 68.437C128.116 67.8217 128.254 67.2323 128.532 66.669C128.818 66.097 129.221 65.5813 129.741 65.122C130.269 64.6627 130.958 64.2943 131.808 64.017C132.657 63.7397 133.589 63.601 134.603 63.601C135.617 63.601 136.514 63.7267 137.294 63.978C138.074 64.2293 138.702 64.5717 139.179 65.005C140.149 65.889 140.635 66.9377 140.635 68.151C140.635 68.7663 140.5 69.3687 140.232 69.958C139.972 70.5473 139.595 71.0847 139.101 71.57C138.615 72.0467 137.987 72.441 137.216 72.753C136.444 73.0563 135.591 73.2253 134.655 73.26ZM137.229 68.216C137.229 67.8 137.081 67.4403 136.787 67.137C136.492 66.825 136.041 66.669 135.435 66.669C134.837 66.669 134.36 66.8293 134.005 67.15C133.649 67.4707 133.472 67.8607 133.472 68.32C133.472 68.7793 133.658 69.1477 134.031 69.425C134.403 69.7023 134.85 69.841 135.37 69.841C135.898 69.841 136.34 69.672 136.696 69.334C137.051 68.996 137.229 68.6233 137.229 68.216ZM147.303 71.323V72.415C147.303 72.7877 147.048 72.987 146.536 73.013C146.034 73.039 145.483 73.052 144.885 73.052C144.296 73.052 143.62 73.0303 142.857 72.987C142.606 72.9697 142.402 72.883 142.246 72.727C142.099 72.571 142.012 72.3933 141.986 72.194C141.917 71.4313 141.882 70.2353 141.882 68.606C141.882 66.968 141.908 65.7763 141.96 65.031C142.012 64.2857 142.389 63.9087 143.091 63.9C143.897 63.8827 144.76 63.874 145.678 63.874C146.597 63.874 147.589 63.887 148.655 63.913C149.73 63.939 150.605 64.342 151.281 65.122C151.957 65.902 152.295 66.76 152.295 67.696C152.295 68.632 151.996 69.4033 151.398 70.01C150.8 70.6167 149.925 70.92 148.772 70.92H147.758C147.646 70.92 147.542 70.959 147.446 71.037C147.351 71.115 147.303 71.2103 147.303 71.323ZM147.29 66.617L147.316 69.022C147.316 69.1867 147.407 69.269 147.589 69.269C148.127 69.269 148.547 69.1217 148.85 68.827C149.162 68.5237 149.318 68.1683 149.318 67.761C149.318 67.3537 149.171 67.0027 148.876 66.708C148.59 66.4133 148.166 66.266 147.602 66.266C147.394 66.266 147.29 66.383 147.29 66.617ZM158.101 64.576C158.421 64.9747 158.79 65.4903 159.206 66.123C159.622 66.747 159.912 67.163 160.077 67.371C160.241 67.579 160.371 67.683 160.467 67.683C160.571 67.683 160.662 67.6267 160.74 67.514C160.818 67.4013 161.104 66.968 161.598 66.214C162.092 65.46 162.499 64.888 162.82 64.498C163.14 64.0993 163.396 63.8957 163.587 63.887C163.777 63.8783 164.024 63.874 164.328 63.874C164.631 63.874 164.986 63.8827 165.394 63.9C165.801 63.9173 166.07 64.0257 166.2 64.225C166.338 64.4157 166.421 64.6887 166.447 65.044C166.499 65.954 166.525 67.163 166.525 68.671C166.525 70.1703 166.486 71.3533 166.408 72.22C166.39 72.428 166.312 72.6143 166.174 72.779C166.035 72.9437 165.844 73.026 165.602 73.026C165.073 73.0347 164.484 73.039 163.834 73.039C163.192 73.039 162.681 73.026 162.3 73C162.161 72.9913 162.035 72.9393 161.923 72.844C161.819 72.74 161.762 72.6057 161.754 72.441L161.676 70.296C161.667 70.088 161.619 69.971 161.533 69.945C161.455 69.919 161.381 69.9753 161.312 70.114C160.852 70.9287 160.28 71.8387 159.596 72.844C159.431 73.0953 159.214 73.221 158.946 73.221C158.677 73.221 158.456 73.0953 158.283 72.844C157.979 72.4107 157.464 71.492 156.736 70.088C156.692 70.0013 156.64 69.9493 156.58 69.932C156.528 69.9147 156.48 69.9363 156.437 69.997C156.393 70.0577 156.372 70.1573 156.372 70.296L156.307 72.441C156.298 72.6057 156.224 72.74 156.086 72.844C155.947 72.9393 155.787 72.9913 155.605 73H154.318C154.084 72.9913 153.893 72.909 153.746 72.753C153.607 72.597 153.525 72.4193 153.499 72.22C153.429 71.4487 153.395 70.2527 153.395 68.632C153.395 67.0027 153.416 65.8067 153.46 65.044C153.486 64.68 153.568 64.3983 153.707 64.199C153.845 63.9997 154.092 63.9 154.448 63.9C156.268 63.9 157.251 63.913 157.399 63.939C157.546 63.965 157.78 64.1773 158.101 64.576ZM169.049 73C168.806 73 168.598 72.922 168.425 72.766C168.26 72.6013 168.152 72.337 168.1 71.973C168.056 71.6003 168.035 70.4953 168.035 68.658C168.035 66.812 168.065 65.6073 168.126 65.044C168.195 64.316 168.503 63.9433 169.049 63.926C169.673 63.9087 172.26 63.9 176.81 63.9C177.321 63.9 177.577 64.225 177.577 64.875C177.577 65.3863 177.351 65.642 176.901 65.642H174.041C173.859 65.642 173.711 65.7027 173.599 65.824C173.495 65.9453 173.443 66.1013 173.443 66.292V67.228C173.443 67.488 173.56 67.618 173.794 67.618H176.16C176.298 67.618 176.402 67.631 176.472 67.657C176.55 67.683 176.619 67.761 176.68 67.891C176.74 68.0123 176.771 68.216 176.771 68.502C176.771 68.788 176.719 68.9787 176.615 69.074C176.519 69.1693 176.359 69.217 176.134 69.217H174.015C173.798 69.217 173.646 69.2733 173.56 69.386C173.482 69.49 173.443 69.6547 173.443 69.88V70.517C173.443 70.8897 173.62 71.076 173.976 71.076H177.213C177.369 71.076 177.507 71.1237 177.629 71.219C177.75 71.3057 177.811 71.505 177.811 71.817C177.811 72.1203 177.737 72.3933 177.59 72.636C177.442 72.8787 177.269 73 177.07 73H169.049ZM187.869 63.9H189.26C189.555 63.9 189.759 63.9477 189.871 64.043C189.993 64.1383 190.058 64.3333 190.066 64.628C190.118 65.9453 190.144 67.3623 190.144 68.879C190.144 70.3957 190.114 71.505 190.053 72.207C190.036 72.4063 189.958 72.5883 189.819 72.753C189.689 72.9177 189.516 73 189.299 73H187.128C186.825 73 186.491 72.8917 186.127 72.675C184.117 71.4877 182.851 70.764 182.331 70.504C182.227 70.4607 182.141 70.478 182.071 70.556C182.011 70.6253 181.98 70.7597 181.98 70.959V72.402C181.98 72.5667 181.92 72.6967 181.798 72.792C181.616 72.9393 181.148 73.013 180.394 73.013C180.186 73.013 179.983 73.0087 179.783 73C179.584 72.9827 179.419 72.8917 179.289 72.727C179.168 72.5623 179.103 72.3847 179.094 72.194C179.068 71.154 179.055 69.8497 179.055 68.281C179.055 66.7037 179.06 65.6767 179.068 65.2C179.077 64.7233 179.133 64.3897 179.237 64.199C179.341 63.9997 179.541 63.9 179.835 63.9H181.265C181.56 63.9 181.863 63.9823 182.175 64.147C184.862 65.5423 186.431 66.3527 186.881 66.578C187.029 66.6473 187.146 66.656 187.232 66.604C187.319 66.552 187.362 66.4567 187.362 66.318V64.498C187.362 64.3247 187.406 64.1817 187.492 64.069C187.588 63.9563 187.713 63.9 187.869 63.9ZM198.995 72.207C198.987 72.3977 198.904 72.5753 198.748 72.74C198.592 72.896 198.384 72.9827 198.124 73C197.63 73.0347 197.037 73.052 196.343 73.052C195.65 73.052 195.013 73.0347 194.432 73C194.172 72.9827 193.964 72.896 193.808 72.74C193.652 72.5753 193.57 72.3977 193.561 72.207C193.535 70.8897 193.522 69.7673 193.522 68.84C193.522 67.904 193.527 67.2193 193.535 66.786C193.535 66.4567 193.388 66.292 193.093 66.292H191.923C191.741 66.292 191.594 66.2487 191.481 66.162C191.369 66.0753 191.304 65.9237 191.286 65.707C191.278 65.4903 191.273 65.265 191.273 65.031C191.273 64.797 191.278 64.5977 191.286 64.433C191.304 64.2597 191.373 64.1297 191.494 64.043C191.624 63.9477 191.763 63.9 191.91 63.9C193.037 63.8827 194.562 63.874 196.486 63.874C198.41 63.874 199.788 63.8827 200.62 63.9C200.768 63.9087 200.902 63.9563 201.023 64.043C201.153 64.1297 201.223 64.2597 201.231 64.433C201.249 64.5977 201.257 64.7927 201.257 65.018C201.257 65.2433 201.253 65.46 201.244 65.668C201.218 66.058 201.006 66.253 200.607 66.253H199.437C199.143 66.253 198.995 66.4047 198.995 66.708C199.021 67.8 199.034 68.788 199.034 69.672C199.034 70.556 199.021 71.401 198.995 72.207Z" fill="white"/>
<path d="M80.6521 194.09L80.6391 187.031C80.7085 186.312 81.0161 185.935 81.5621 185.9C81.9521 185.891 84.5478 185.887 89.3491 185.887C89.8691 185.887 90.1291 186.273 90.1291 187.044C90.1291 187.434 89.8995 187.629 89.4401 187.629H86.6061C86.4241 187.629 86.2768 187.69 86.1641 187.811C86.0601 187.932 86.0081 188.093 86.0081 188.292V189.215C86.0081 189.484 86.1208 189.618 86.3461 189.618H88.5041C88.7121 189.618 88.8681 189.666 88.9721 189.761C89.0761 189.856 89.1281 190.077 89.1281 190.424C89.1281 190.762 89.0761 190.979 88.9721 191.074C88.8768 191.169 88.7165 191.217 88.4911 191.217H86.5541C86.3375 191.217 86.1858 191.269 86.0991 191.373C86.0211 191.477 85.9821 191.642 85.9821 191.867V194.103C85.9821 194.406 85.9171 194.632 85.7871 194.779C85.6571 194.926 85.4881 195 85.2801 195H81.5881C81.3455 195 81.1375 194.922 80.9641 194.766C80.7908 194.601 80.6868 194.376 80.6521 194.09ZM96.3103 187.265L96.2843 188.448V190.957C96.2843 191.321 96.397 191.603 96.6223 191.802C96.8477 192.001 97.112 192.101 97.4153 192.101C97.7187 192.101 97.9787 192.001 98.1953 191.802C98.4207 191.603 98.5333 191.321 98.5333 190.957V187.083C98.5333 186.676 98.5853 186.377 98.6893 186.186C98.802 185.995 99.0403 185.9 99.4043 185.9H100.6C100.878 185.9 101.068 185.982 101.172 186.147C101.372 186.442 101.471 187.581 101.471 189.566C101.471 190.216 101.463 190.714 101.445 191.061C101.419 191.763 101.255 192.391 100.951 192.946C100.657 193.492 100.275 193.93 99.8073 194.259C98.8627 194.926 97.7923 195.26 96.5963 195.26C95.019 195.26 93.7147 194.892 92.6833 194.155C92.1633 193.782 91.7517 193.288 91.4483 192.673C91.1537 192.049 91.002 191.325 90.9933 190.502C90.9847 190.095 90.9803 189.497 90.9803 188.708C90.9803 187.911 90.989 187.339 91.0063 186.992C91.0323 186.637 91.1017 186.368 91.2143 186.186C91.3357 185.995 91.574 185.9 91.9293 185.9H95.4003C95.747 185.9 95.9767 185.991 96.0893 186.173C96.2367 186.407 96.3103 186.771 96.3103 187.265ZM108.189 189.033L108.176 191.633C108.176 192.014 108.233 192.3 108.345 192.491C108.467 192.673 108.714 192.764 109.086 192.764H112.375C112.774 192.773 112.973 193.076 112.973 193.674C112.973 194.133 112.917 194.467 112.804 194.675C112.692 194.883 112.462 194.991 112.115 195C110.893 195.035 109.684 195.052 108.488 195.052C107.292 195.052 105.767 195.043 103.912 195.026C103.6 195.026 103.345 194.952 103.145 194.805C102.955 194.649 102.846 194.437 102.82 194.168C102.751 193.414 102.716 192.227 102.716 190.606C102.716 188.977 102.734 187.88 102.768 187.317C102.812 186.745 102.894 186.368 103.015 186.186C103.137 185.995 103.375 185.9 103.73 185.9H107.214C107.578 185.9 107.817 185.995 107.929 186.186C108.051 186.377 108.124 186.684 108.15 187.109C108.176 187.534 108.189 188.175 108.189 189.033ZM119.348 189.033L119.335 191.633C119.335 192.014 119.392 192.3 119.504 192.491C119.626 192.673 119.873 192.764 120.245 192.764H123.534C123.933 192.773 124.132 193.076 124.132 193.674C124.132 194.133 124.076 194.467 123.963 194.675C123.851 194.883 123.621 194.991 123.274 195C122.052 195.035 120.843 195.052 119.647 195.052C118.451 195.052 116.926 195.043 115.071 195.026C114.759 195.026 114.504 194.952 114.304 194.805C114.114 194.649 114.005 194.437 113.979 194.168C113.91 193.414 113.875 192.227 113.875 190.606C113.875 188.977 113.893 187.88 113.927 187.317C113.971 186.745 114.053 186.368 114.174 186.186C114.296 185.995 114.534 185.9 114.889 185.9H118.373C118.737 185.9 118.976 185.995 119.088 186.186C119.21 186.377 119.283 186.684 119.309 187.109C119.335 187.534 119.348 188.175 119.348 189.033ZM129.117 195.26C128.371 195.26 127.674 195.178 127.024 195.013C126.382 194.848 125.927 194.684 125.659 194.519C125.399 194.354 125.225 194.237 125.139 194.168C124.913 193.986 124.801 193.735 124.801 193.414C124.801 193.163 124.831 192.924 124.892 192.699C125.004 192.274 125.208 192.062 125.503 192.062C125.598 192.071 125.901 192.17 126.413 192.361C126.933 192.552 127.34 192.647 127.635 192.647C128.077 192.647 128.298 192.474 128.298 192.127C128.298 191.919 128.189 191.728 127.973 191.555C127.756 191.373 127.492 191.2 127.18 191.035C126.876 190.87 126.569 190.684 126.257 190.476C125.945 190.259 125.68 189.965 125.464 189.592C125.247 189.211 125.139 188.769 125.139 188.266C125.139 187.434 125.546 186.784 126.361 186.316C127.175 185.839 128.228 185.601 129.52 185.601C130.811 185.601 131.834 185.735 132.588 186.004C133.35 186.264 133.732 186.628 133.732 187.096C133.732 187.434 133.654 187.733 133.498 187.993C133.342 188.244 133.177 188.37 133.004 188.37C132.943 188.37 132.739 188.305 132.393 188.175C132.055 188.036 131.747 187.967 131.47 187.967C130.924 187.967 130.651 188.179 130.651 188.604C130.651 188.812 130.781 189.003 131.041 189.176C131.301 189.349 131.613 189.518 131.977 189.683C132.349 189.839 132.722 190.017 133.095 190.216C133.467 190.415 133.784 190.688 134.044 191.035C134.304 191.382 134.434 191.802 134.434 192.296C134.434 192.79 134.273 193.241 133.953 193.648C133.641 194.055 133.225 194.372 132.705 194.597C131.673 195.039 130.477 195.26 129.117 195.26ZM142.995 194.207C142.987 194.398 142.904 194.575 142.748 194.74C142.592 194.896 142.384 194.983 142.124 195C141.63 195.035 141.037 195.052 140.343 195.052C139.65 195.052 139.013 195.035 138.432 195C138.172 194.983 137.964 194.896 137.808 194.74C137.652 194.575 137.57 194.398 137.561 194.207C137.535 192.89 137.522 191.767 137.522 190.84C137.522 189.904 137.527 189.219 137.535 188.786C137.535 188.457 137.388 188.292 137.093 188.292H135.923C135.741 188.292 135.594 188.249 135.481 188.162C135.369 188.075 135.304 187.924 135.286 187.707C135.278 187.49 135.273 187.265 135.273 187.031C135.273 186.797 135.278 186.598 135.286 186.433C135.304 186.26 135.373 186.13 135.494 186.043C135.624 185.948 135.763 185.9 135.91 185.9C137.037 185.883 138.562 185.874 140.486 185.874C142.41 185.874 143.788 185.883 144.62 185.9C144.768 185.909 144.902 185.956 145.023 186.043C145.153 186.13 145.223 186.26 145.231 186.433C145.249 186.598 145.257 186.793 145.257 187.018C145.257 187.243 145.253 187.46 145.244 187.668C145.218 188.058 145.006 188.253 144.607 188.253H143.437C143.143 188.253 142.995 188.405 142.995 188.708C143.021 189.8 143.034 190.788 143.034 191.672C143.034 192.556 143.021 193.401 142.995 194.207ZM154.837 186.511L159.088 193.7C159.261 193.986 159.348 194.229 159.348 194.428C159.348 194.619 159.27 194.762 159.114 194.857C158.958 194.952 158.776 195 158.568 195H154.382C153.957 195 153.684 194.922 153.563 194.766C153.528 194.714 153.481 194.623 153.42 194.493L153.043 193.687C152.93 193.436 152.666 193.293 152.25 193.258H149.793C149.611 193.258 149.472 193.275 149.377 193.31C149.282 193.345 149.204 193.423 149.143 193.544L148.636 194.597C148.549 194.753 148.454 194.861 148.35 194.922C148.246 194.974 148.094 195 147.895 195H146.725C146.387 195 146.205 194.879 146.179 194.636C146.17 194.601 146.166 194.567 146.166 194.532C146.166 194.333 146.231 194.142 146.361 193.96L150.43 186.784C150.82 186.108 151.453 185.77 152.328 185.77H153.368C154.061 185.77 154.551 186.017 154.837 186.511ZM150.625 189.839L150.027 191.022C149.992 191.1 149.975 191.169 149.975 191.23C149.975 191.455 150.083 191.568 150.3 191.568H151.483C151.665 191.568 151.791 191.525 151.86 191.438C151.929 191.343 151.964 191.26 151.964 191.191C151.964 191.122 151.951 191.052 151.925 190.983L151.431 189.865C151.327 189.64 151.193 189.527 151.028 189.527C150.863 189.527 150.729 189.631 150.625 189.839ZM165.172 195.26C163.612 195.26 162.377 194.866 161.467 194.077C160.565 193.28 160.115 192.157 160.115 190.71C160.115 189.826 160.258 189.05 160.544 188.383C160.838 187.716 161.25 187.183 161.779 186.784C162.827 185.995 164.21 185.601 165.926 185.601C167.035 185.601 168.144 185.753 169.254 186.056C169.678 186.195 169.891 186.537 169.891 187.083C169.891 187.828 169.657 188.201 169.189 188.201C169.111 188.201 168.855 188.166 168.422 188.097C167.988 188.028 167.685 187.993 167.512 187.993C166.896 187.993 166.42 188.21 166.082 188.643C165.752 189.068 165.588 189.579 165.588 190.177C165.588 190.766 165.744 191.286 166.056 191.737C166.368 192.188 166.792 192.422 167.33 192.439C167.694 192.456 168.339 192.465 169.267 192.465C169.717 192.465 169.964 192.677 170.008 193.102C170.034 193.258 170.047 193.418 170.047 193.583C170.047 193.739 170.034 193.899 170.008 194.064C169.956 194.376 169.713 194.606 169.28 194.753C168.846 194.892 168.222 195.009 167.408 195.104C166.593 195.208 165.848 195.26 165.172 195.26ZM179.02 194.779L177.499 192.959C177.343 192.768 177.183 192.673 177.018 192.673C176.819 192.673 176.719 192.838 176.719 193.167V194.402C176.719 194.558 176.65 194.684 176.511 194.779C176.373 194.874 176.208 194.931 176.017 194.948C175.471 194.983 174.852 195 174.158 195C173.474 195 172.824 194.983 172.208 194.948C171.948 194.931 171.74 194.844 171.584 194.688C171.428 194.523 171.342 194.341 171.324 194.142C171.255 193.379 171.22 192.196 171.22 190.593C171.22 188.981 171.238 187.889 171.272 187.317C171.316 186.745 171.394 186.368 171.506 186.186C171.628 185.995 171.87 185.9 172.234 185.9H175.718C176.004 185.9 176.243 186.013 176.433 186.238C176.624 186.463 176.719 186.741 176.719 187.07L176.732 188.526C176.732 188.708 176.78 188.799 176.875 188.799C176.936 188.799 177.057 188.725 177.239 188.578L179.787 186.199C179.995 186 180.242 185.9 180.528 185.9C180.823 185.891 181.135 185.887 181.464 185.887L182.465 185.9C182.604 185.9 182.699 185.965 182.751 186.095C182.803 186.225 182.777 186.342 182.673 186.446C181.677 187.443 180.68 188.366 179.683 189.215C179.597 189.293 179.553 189.375 179.553 189.462C179.553 189.54 179.601 189.627 179.696 189.722L180.398 190.424C180.754 190.779 181.044 191.07 181.269 191.295C181.503 191.52 181.776 191.793 182.088 192.114C182.712 192.755 183.189 193.275 183.518 193.674C183.692 193.882 183.778 194.094 183.778 194.311C183.778 194.389 183.765 194.471 183.739 194.558C183.644 194.853 183.436 195 183.115 195H179.618C179.35 195 179.15 194.926 179.02 194.779Z" fill="white"/>
<defs>
<filter id="filter0_dd_82_141" x="0" y="0" width="264" height="264" filterUnits="userSpaceOnUse" color-interpolation-filters="sRGB">
<feFlood flood-opacity="0" result="BackgroundImageFix"/>
<feColorMatrix in="SourceAlpha" type="matrix" values="0 0 0 0 0 0 0 0 0 0 0 0 0 0 0 0 0 0 127 0" result="hardAlpha"/>
<feOffset dx="-2" dy="-2"/>
<feGaussianBlur stdDeviation="2.5"/>
<feComposite in2="hardAlpha" operator="out"/>
<feColorMatrix type="matrix" values="0 0 0 0 0.170035 0 0 0 0 0.240794 0 0 0 0 0.491667 0 0 0 0.25 0"/>
<feBlend mode="normal" in2="BackgroundImageFix" result="effect1_dropShadow_82_141"/>
<feColorMatrix in="SourceAlpha" type="matrix" values="0 0 0 0 0 0 0 0 0 0 0 0 0 0 0 0 0 0 127 0" result="hardAlpha"/>
<feOffset dx="2" dy="2"/>
<feGaussianBlur stdDeviation="2.5"/>
<feComposite in2="hardAlpha" operator="out"/>
<feColorMatrix type="matrix" values="0 0 0 0 0.168627 0 0 0 0 0.239216 0 0 0 0 0.490196 0 0 0 0.25 0"/>
<feBlend mode="normal" in2="effect1_dropShadow_82_141" result="effect2_dropShadow_82_141"/>
<feBlend mode="normal" in="SourceGraphic" in2="effect2_dropShadow_82_141" result="shape"/>
</filter>
</defs>
</svg>
